<?xml version="1.0" encoding="UTF-8"?><svg id="Layer_1" xmlns="http://www.w3.org/2000/svg" viewBox="0 0 1200 1200"><defs><style>.cls-1{fill:#fff;}.cls-1,.cls-2{stroke-width:0px;}.cls-2{fill:#26b557;}</style></defs><path class="cls-2" d="m600.68,9.43C272.95,9.43,7.31,273.93,7.31,600.22s265.64,590.78,593.37,590.78,593.32-264.5,593.32-590.78S928.35,9.43,600.68,9.43Zm204.19,618.26l-264.35,219.37c-23.3,19.31-58.51,2.76-58.51-27.47v-438.75c0-30.24,35.22-46.79,58.51-27.48l264.35,219.37c17.23,14.28,17.23,40.68,0,54.95Z"/><path class="cls-1" d="m540.51,353.37c-23.3-19.31-58.51-2.76-58.51,27.48v438.75c0,30.23,35.22,46.78,58.51,27.47l264.35-219.37c17.23-14.28,17.23-40.68,0-54.95l-264.35-219.37Z"/></svg>